<svg width="1024" height="1024" viewBox="0 0 1024 1024" fill="none" xmlns="http://www.w3.org/2000/svg">
    <rect width="1024" height="1024" rx="239" fill="#1C1C1E"/>
    <path d="M222 663.082V615.912C222 596.643 242.881 584.618 259.548 594.29L498.974 733.231C506.721 737.727 516.283 737.734 524.037 733.25L764.484 594.196C781.151 584.557 802 596.584 802 615.837V663.057C802 671.993 797.23 680.251 789.488 684.715L524.009 837.787C516.269 842.25 506.735 842.243 499.002 837.769L234.48 684.721C226.756 680.252 222 672.005 222 663.082Z"
          fill="#FA4454" stroke="black"/>
    <path d="M235.02 496.213C227.274 491.75 222.5 483.491 222.5 474.551V359.949C222.5 351.009 227.274 342.75 235.02 338.287L499.02 186.19C506.745 181.74 516.255 181.74 523.98 186.19L787.98 338.287C795.726 342.75 800.5 351.009 800.5 359.949V474.551C800.5 483.491 795.726 491.75 787.98 496.213L523.98 648.31C516.255 652.76 506.745 652.76 499.02 648.31L235.02 496.213Z"
          fill="#FA4454"/>
    <path d="M523.449 289.136C515.739 284.717 506.264 284.722 498.559 289.15L326.043 388.292C318.284 392.751 313.5 401.018 313.5 409.967V423.159C313.5 432.041 318.212 440.256 325.879 444.74L498.395 545.629C506.183 550.183 515.82 550.188 523.613 545.643L696.597 444.735C704.277 440.255 709 432.032 709 423.141V409.985C709 401.026 704.206 392.752 696.433 388.296L523.449 289.136Z"
          fill="#FA4454"/>
</svg>
